<?xml version="1.0" encoding="UTF-8"?>
<!-- Generated by Pixelmator Pro 2.4.2 -->
<svg width="92" height="92" viewBox="0 0 92 92" xmlns="http://www.w3.org/2000/svg" xmlns:xlink="http://www.w3.org/1999/xlink">
    <path id="path1" fill="#0b3d91" stroke="none" d="M 86.189003 46 C 86.189003 68.168709 68.217712 86.139999 46.049 86.139999 C 23.880291 86.139999 5.909 68.168709 5.909 46 C 5.909 23.831291 23.880291 5.860001 46.049 5.860001 C 68.217712 5.860001 86.189003 23.831291 86.189003 46 Z"/>
    <g id="g1">
        <path id="path2" fill="#ffffff" stroke="none" d="M 44.129002 13.57 C 44.129002 13.818527 43.927528 14.020004 43.679001 14.020004 C 43.430473 14.020004 43.229 13.818527 43.229 13.57 C 43.229 13.321472 43.430473 13.120003 43.679001 13.120003 C 43.927528 13.120003 44.129002 13.321472 44.129002 13.57 Z"/>
        <path id="path3" fill="#ffffff" stroke="none" d="M 48.749001 14.169998 C 48.749001 14.418526 48.547527 14.620003 48.299 14.620003 C 48.050472 14.620003 47.848999 14.418526 47.848999 14.169998 C 47.848999 13.921471 48.050472 13.720001 48.299 13.720001 C 48.547527 13.720001 48.749001 13.921471 48.749001 14.169998 Z"/>
        <path id="path4" fill="#ffffff" stroke="none" d="M 54.808998 22.330002 C 54.808998 22.578529 54.607529 22.779999 54.359001 22.779999 C 54.110474 22.779999 53.909 22.578529 53.909 22.330002 C 53.909 22.081474 54.110474 21.879997 54.359001 21.879997 C 54.607529 21.879997 54.808998 22.081474 54.808998 22.330002 Z"/>
        <path id="path5" fill="#ffffff" stroke="none" d="M 21.569 64.330002 C 21.569 64.578529 21.367529 64.779999 21.118999 64.779999 C 20.870472 64.779999 20.669001 64.578529 20.669001 64.330002 C 20.669001 64.081467 20.870472 63.880001 21.118999 63.880001 C 21.367529 63.880001 21.569 64.081467 21.569 64.330002 Z"/>
        <path id="path6" fill="#ffffff" stroke="none" d="M 22.739 67.93 C 22.739 68.178528 22.537529 68.379997 22.289 68.379997 C 22.040472 68.379997 21.839001 68.178528 21.839001 67.93 C 21.839001 67.681473 22.040472 67.480003 22.289 67.480003 C 22.537529 67.480003 22.739 67.681473 22.739 67.93 Z"/>
        <path id="path7" fill="#ffffff" stroke="none" d="M 17.046 64.869995 C 17.046 65.056122 16.895121 65.207001 16.709 65.207001 C 16.522881 65.207001 16.372 65.056122 16.372 64.869995 C 16.372 64.683884 16.522881 64.533005 16.709 64.533005 C 16.895121 64.533005 17.046 64.683884 17.046 64.869995 Z"/>
        <path id="path8" fill="#ffffff" stroke="none" d="M 35.347 71.942001 C 35.347 72.12867 35.195671 72.279999 35.008999 72.279999 C 34.822327 72.279999 34.671001 72.12867 34.671001 71.942001 C 34.671001 71.755325 34.822327 71.603996 35.008999 71.603996 C 35.195671 71.603996 35.347 71.755325 35.347 71.942001 Z"/>
        <path id="path9" fill="#ffffff" stroke="none" d="M 64.047997 65.980003 C 64.047997 66.166122 63.897118 66.317001 63.710999 66.317001 C 63.524879 66.317001 63.374001 66.166122 63.374001 65.980003 C 63.374001 65.793877 63.524879 65.642998 63.710999 65.642998 C 63.897118 65.642998 64.047997 65.793877 64.047997 65.980003 Z"/>
        <path id="path10" fill="#ffffff" stroke="none" d="M 72.389999 56.919998 C 72.389999 57.10667 72.23867 57.257999 72.052002 57.257999 C 71.865326 57.257999 71.713997 57.10667 71.713997 56.919998 C 71.713997 56.733326 71.865326 56.582001 72.052002 56.582001 C 72.23867 56.582001 72.389999 56.733326 72.389999 56.919998 Z"/>
        <path id="path11" fill="#ffffff" stroke="none" d="M 31.506001 24.961998 C 31.506001 25.148117 31.355122 25.298996 31.168999 25.298996 C 30.98288 25.298996 30.832001 25.148117 30.832001 24.961998 C 30.832001 24.775879 30.98288 24.625 31.168999 24.625 C 31.355122 24.625 31.506001 24.775879 31.506001 24.961998 Z"/>
        <path id="path12" fill="#ffffff" stroke="none" d="M 40.686001 18.220001 C 40.686001 18.40612 40.535118 18.556999 40.348999 18.556999 C 40.16288 18.556999 40.012001 18.40612 40.012001 18.220001 C 40.012001 18.033882 40.16288 17.882996 40.348999 17.882996 C 40.535118 17.882996 40.686001 18.033882 40.686001 18.220001 Z"/>
        <path id="path13" fill="#ffffff" stroke="none" d="M 39.688999 17.559998 C 39.688999 17.746124 39.53812 17.897003 39.352001 17.897003 C 39.165878 17.897003 39.014999 17.746124 39.014999 17.559998 C 39.014999 17.373878 39.165878 17.223 39.352001 17.223 C 39.53812 17.223 39.688999 17.373878 39.688999 17.559998 Z"/>
        <path id="path14" fill="#ffffff" stroke="none" d="M 38.789001 16.900002 C 38.789001 17.086121 38.638119 17.237 38.452 17.237 C 38.265881 17.237 38.115002 17.086121 38.115002 16.900002 C 38.115002 16.713882 38.265881 16.563004 38.452 16.563004 C 38.638119 16.563004 38.789001 16.713882 38.789001 16.900002 Z"/>
        <path id="path15" fill="#ffffff" stroke="none" d="M 32.945999 26.703003 C 32.945999 26.889122 32.79512 27.040001 32.609001 27.040001 C 32.422878 27.040001 32.271999 26.889122 32.271999 26.703003 C 32.271999 26.516876 32.422878 26.365997 32.609001 26.365997 C 32.79512 26.365997 32.945999 26.516876 32.945999 26.703003 Z"/>
        <path id="path16" fill="#ffffff" stroke="none" d="M 46.467999 9.160004 C 46.467999 9.346123 46.31712 9.497002 46.131001 9.497002 C 45.944881 9.497002 45.793999 9.346123 45.793999 9.160004 C 45.793999 8.973877 45.944881 8.822998 46.131001 8.822998 C 46.31712 8.822998 46.467999 8.973877 46.467999 9.160004 Z"/>
        <path id="path17" fill="#ffffff" stroke="none" d="M 48.688999 18.879997 C 48.688999 19.066116 48.53812 19.216995 48.352001 19.216995 C 48.165878 19.216995 48.014999 19.066116 48.014999 18.879997 C 48.014999 18.693878 48.165878 18.542999 48.352001 18.542999 C 48.53812 18.542999 48.688999 18.693878 48.688999 18.879997 Z"/>
        <path id="path18" fill="#ffffff" stroke="none" d="M 45.186001 16.982002 C 45.186001 17.168121 45.035118 17.319 44.848999 17.319 C 44.66288 17.319 44.512001 17.168121 44.512001 16.982002 C 44.512001 16.795883 44.66288 16.645004 44.848999 16.645004 C 45.035118 16.645004 45.186001 16.795883 45.186001 16.982002 Z"/>
        <path id="path19" fill="#ffffff" stroke="none" d="M 39.186001 19.563004 C 39.186001 19.749123 39.035118 19.900002 38.848999 19.900002 C 38.66288 19.900002 38.512001 19.749123 38.512001 19.563004 C 38.512001 19.376877 38.66288 19.225998 38.848999 19.225998 C 39.035118 19.225998 39.186001 19.376877 39.186001 19.563004 Z"/>
        <path id="path20" fill="#ffffff" stroke="none" d="M 65.646004 74.883003 C 65.646004 75.069122 65.495117 75.220001 65.308998 75.220001 C 65.122879 75.220001 64.972 75.069122 64.972 74.883003 C 64.972 74.696877 65.122879 74.545998 65.308998 74.545998 C 65.495117 74.545998 65.646004 74.696877 65.646004 74.883003 Z"/>
        <path id="path21" fill="#ffffff" stroke="none" d="M 20.886999 66.610001 C 20.886999 66.796669 20.735672 66.947998 20.549 66.947998 C 20.362328 66.947998 20.211 66.796669 20.211 66.610001 C 20.211 66.423325 20.362328 66.272003 20.549 66.272003 C 20.735672 66.272003 20.886999 66.423325 20.886999 66.610001 Z"/>
        <path id="path22" fill="#ffffff" stroke="none" d="M 44.347 70.959999 C 44.347 71.146675 44.195671 71.297997 44.008999 71.297997 C 43.822327 71.297997 43.671001 71.146675 43.671001 70.959999 C 43.671001 70.773331 43.822327 70.622002 44.008999 70.622002 C 44.195671 70.622002 44.347 70.773331 44.347 70.959999 Z"/>
        <path id="path23" fill="#ffffff" stroke="none" d="M 27.868999 66.339996 C 27.868999 66.526672 27.717672 66.678001 27.531 66.678001 C 27.344328 66.678001 27.193001 66.526672 27.193001 66.339996 C 27.193001 66.153328 27.344328 66.001999 27.531 66.001999 C 27.717672 66.001999 27.868999 66.153328 27.868999 66.339996 Z"/>
        <path id="path24" fill="#ffffff" stroke="none" d="M 30.786999 71.102997 C 30.786999 71.289673 30.635674 71.441002 30.449001 71.441002 C 30.262329 71.441002 30.111 71.289673 30.111 71.102997 C 30.111 70.916328 30.262329 70.764999 30.449001 70.764999 C 30.635674 70.764999 30.786999 70.916328 30.786999 71.102997 Z"/>
        <path id="path25" fill="#ffffff" stroke="none" d="M 52.265999 68.102997 C 52.265999 68.289124 52.11512 68.440002 51.929001 68.440002 C 51.742882 68.440002 51.591999 68.289124 51.591999 68.102997 C 51.591999 67.916878 51.742882 67.765999 51.929001 67.765999 C 52.11512 67.765999 52.265999 67.916878 52.265999 68.102997 Z"/>
        <path id="path26" fill="#ffffff" stroke="none" d="M 64.108002 61.419998 C 64.108002 61.606121 63.957123 61.757 63.771004 61.757 C 63.584877 61.757 63.433998 61.606121 63.433998 61.419998 C 63.433998 61.233879 63.584877 61.083 63.771004 61.083 C 63.957123 61.083 64.108002 61.233879 64.108002 61.419998 Z"/>
        <path id="path27" fill="#ffffff" stroke="none" d="M 73.085999 65.522003 C 73.085999 65.708122 72.93512 65.859001 72.749001 65.859001 C 72.562881 65.859001 72.412003 65.708122 72.412003 65.522003 C 72.412003 65.335876 72.562881 65.184998 72.749001 65.184998 C 72.93512 65.184998 73.085999 65.335876 73.085999 65.522003 Z"/>
        <path id="path28" fill="#ffffff" stroke="none" d="M 76.146004 67.480003 C 76.146004 67.666122 75.995117 67.817001 75.808998 67.817001 C 75.622879 67.817001 75.472 67.666122 75.472 67.480003 C 75.472 67.293877 75.622879 67.142998 75.808998 67.142998 C 75.995117 67.142998 76.146004 67.293877 76.146004 67.480003 Z"/>
        <path id="path29" fill="#ffffff" stroke="none" d="M 76.649002 62.139999 C 76.649002 62.326118 76.498123 62.477001 76.311996 62.477001 C 76.125877 62.477001 75.974998 62.326118 75.974998 62.139999 C 75.974998 61.95388 76.125877 61.803001 76.311996 61.803001 C 76.498123 61.803001 76.649002 61.95388 76.649002 62.139999 Z"/>
        <path id="path30" fill="#ffffff" stroke="none" d="M 32.007999 54.580002 C 32.007999 54.766121 31.857121 54.917 31.671001 54.917 C 31.484879 54.917 31.334 54.766121 31.334 54.580002 C 31.334 54.393879 31.484879 54.243 31.671001 54.243 C 31.857121 54.243 32.007999 54.393879 32.007999 54.580002 Z"/>
        <path id="path31" fill="#ffffff" stroke="none" d="M 32.249001 62.32 C 32.249001 62.568527 32.047527 62.77 31.799 62.77 C 31.550472 62.77 31.348999 62.568527 31.348999 62.32 C 31.348999 62.071472 31.550472 61.869999 31.799 61.869999 C 32.047527 61.869999 32.249001 62.071472 32.249001 62.32 Z"/>
        <path id="path32" fill="#ffffff" stroke="none" d="M 34.949001 68.019997 C 34.949001 68.268532 34.747528 68.470001 34.499001 68.470001 C 34.250473 68.470001 34.049 68.268532 34.049 68.019997 C 34.049 67.771469 34.250473 67.57 34.499001 67.57 C 34.747528 67.57 34.949001 67.771469 34.949001 68.019997 Z"/>
        <path id="path33" fill="#ffffff" stroke="none" d="M 67.289001 62.080002 C 67.289001 62.328529 67.087524 62.529999 66.838997 62.529999 C 66.590469 62.529999 66.389 62.328529 66.389 62.080002 C 66.389 61.83147 66.590469 61.630001 66.838997 61.630001 C 67.087524 61.630001 67.289001 61.83147 67.289001 62.080002 Z"/>
        <path id="path34" fill="#ffffff" stroke="none" d="M 78.929001 61.419998 C 78.929001 61.66853 78.727531 61.869999 78.478996 61.869999 C 78.230469 61.869999 78.028999 61.66853 78.028999 61.419998 C 78.028999 61.171471 78.230469 60.970001 78.478996 60.970001 C 78.727531 60.970001 78.929001 61.171471 78.929001 61.419998 Z"/>
        <path id="path35" fill="#ffffff" stroke="none" d="M 73.168999 58.959999 C 73.168999 59.208527 72.967529 59.41 72.719002 59.41 C 72.470474 59.41 72.268997 59.208527 72.268997 58.959999 C 72.268997 58.711472 72.470474 58.509998 72.719002 58.509998 C 72.967529 58.509998 73.168999 58.711472 73.168999 58.959999 Z"/>
        <path id="path36" fill="#ffffff" stroke="none" d="M 67.289001 59.200001 C 67.289001 59.448528 67.087524 59.650002 66.838997 59.650002 C 66.590469 59.650002 66.389 59.448528 66.389 59.200001 C 66.389 58.951473 66.590469 58.75 66.838997 58.75 C 67.087524 58.75 67.289001 58.951473 67.289001 59.200001 Z"/>
        <path id="path37" fill="#ffffff" stroke="none" d="M 54.709999 13.288002 L 55.828999 13.181 L 54.712002 13.117996 C 54.676998 12.902 54.504002 12.733002 54.285999 12.705002 L 54.179001 11.591003 L 54.115002 12.713997 C 53.912998 12.759003 53.757999 12.928001 53.733002 13.138 L 52.589001 13.241997 L 53.741001 13.304001 C 53.783001 13.497002 53.938999 13.648003 54.134998 13.683998 L 54.238998 14.832001 L 54.299999 13.685997 C 54.507 13.651001 54.671001 13.491997 54.709999 13.288002 Z"/>
        <path id="path38" fill="#ffffff" stroke="none" d="M 35.824001 25.746002 L 36.943001 25.639 L 35.826 25.576004 C 35.792 25.360001 35.618 25.191002 35.400002 25.163002 L 35.292999 24.048996 L 35.23 25.171997 C 35.027 25.216995 34.872002 25.386002 34.847 25.596001 L 33.702999 25.699997 L 34.855 25.762001 C 34.896999 25.955002 35.053001 26.106003 35.249001 26.141998 L 35.353001 27.290001 L 35.415001 26.143997 C 35.622002 26.110001 35.785999 25.949997 35.824001 25.746002 Z"/>
        <path id="path39" fill="#ffffff" stroke="none" d="M 77.658997 58.683998 L 78.778 58.577 L 77.661003 58.514 C 77.626999 58.298 77.453003 58.129002 77.235001 58.101002 L 77.127998 56.987 L 77.065002 58.110001 C 76.862999 58.154999 76.708 58.324001 76.682999 58.534 L 75.539001 58.638 L 76.691002 58.700001 C 76.733002 58.893002 76.889 59.043999 77.084999 59.080002 L 77.189003 60.228001 L 77.250999 59.082001 C 77.456001 59.048 77.620003 58.889 77.658997 58.683998 Z"/>
        <path id="path40" fill="#ffffff" stroke="none" d="M 32.043999 75.905998 L 33.162998 75.799004 L 32.046001 75.736 C 32.011002 75.519997 31.838001 75.350998 31.619999 75.322998 L 31.513 74.209999 L 31.450001 75.332001 C 31.247002 75.376999 31.091999 75.545998 31.067001 75.755997 L 29.923 75.860001 L 31.075001 75.921997 C 31.117001 76.114998 31.272999 76.266998 31.469002 76.302002 L 31.573002 77.449997 L 31.634998 76.304001 C 31.841 76.269997 32.006001 76.110001 32.043999 75.905998 Z"/>
        <path id="path41" fill="#ffffff" stroke="none" d="M 74.103996 67.505997 L 75.223 67.399002 L 74.106003 67.335999 C 74.071999 67.120003 73.898003 66.950996 73.68 66.922997 L 73.572998 65.808998 L 73.510002 66.931 C 73.307999 66.975998 73.153 67.144997 73.127998 67.355003 L 71.984001 67.459 L 73.136002 67.521004 C 73.178001 67.713997 73.334 67.864998 73.529999 67.901001 L 73.634003 69.049004 L 73.695999 67.903 C 73.901001 67.870003 74.066002 67.709999 74.103996 67.505997 Z"/>
    </g>
    <path id="path42" fill="#fc3d21" stroke="none" d="M 51.202198 41.025814 C 46.989517 42.696907 42.880642 44.188358 39.413555 45.295662 C 32.368355 47.547119 13.092215 53.641903 1.448 61.32486 L 2.422864 61.711773 C 9.517712 57.621567 14.129362 56.336464 18.562288 54.913181 C 23.38245 53.365536 38.964939 49.643814 46.020969 47.617134 C 48.404877 46.932667 51.196781 46.036324 54.15387 44.945599 C 53.466049 43.966343 52.740314 42.984329 51.976669 42.004147 C 51.721222 41.673435 51.462158 41.347321 51.202198 41.025814 Z M 56.349117 48.265671 C 55.329121 48.968559 54.474312 49.529583 53.875851 49.883331 C 50.409664 51.928436 33.511116 63.701607 29.666716 66.409988 C 25.822321 69.118362 15.152066 79.39917 12.010837 82.383911 L 11.90252 83.598999 C 22.030277 74.313118 25.207615 72.022964 29.233442 68.897278 C 34.216084 65.02816 44.523468 57.870293 48.026665 55.576458 C 51.375504 53.383961 54.395779 51.367413 57.106445 49.522213 C 57.062214 49.446674 57.017986 49.371132 56.973751 49.29467 C 56.769756 48.9529 56.561241 48.610207 56.349117 48.265671 Z M 72.180733 31.201023 C 67.246841 34.152603 59.47049 37.714958 51.926121 40.737473 C 52.106651 40.963173 52.286282 41.190712 52.465004 41.420097 C 53.308083 42.503448 54.103321 43.594173 54.85162 44.685818 C 60.782043 42.456467 67.289261 39.464348 72.452438 35.843044 C 69.992714 38.221626 61.860714 44.424191 56.902447 47.881523 C 57.157894 48.306202 57.405224 48.730885 57.644428 49.153725 C 65.156296 44.02346 70.211151 40.247387 73.156502 37.722328 C 77.218437 34.24012 86.479652 26.446609 90 16 C 83.824951 24.015518 76.5243 28.602268 72.180733 31.201023 Z"/>
    <g id="g2">
        <path id="path43" fill="#ffffff" stroke="none" d="M 40.883999 55.938999 C 39.999001 54.825001 38.775002 53.333 37.855999 52.175999 C 36.626999 50.629002 35.490002 49.066002 34.448002 47.505001 C 34.108002 47.59 33.769001 47.674999 33.43 47.759998 C 34.688 49.723 36.084999 51.682999 37.606998 53.598999 C 38.719002 54.999001 39.73 56.125999 40.248001 56.827 C 40.353001 56.969002 40.561001 57.283001 40.841999 57.701 C 41.166 57.480999 41.493 57.258999 41.823002 57.035 C 41.504002 56.688 41.188999 56.323002 40.883999 55.938999 Z M 47.344002 61.803001 C 46.617001 61.115002 44.854 59.966 43.019001 58.242001 C 42.613998 58.52 42.205002 58.801998 41.794998 59.085999 C 42.98 60.756001 44.594002 62.806999 45.858002 63.404999 C 47.762001 64.306999 48.275002 62.685001 47.344002 61.803001 Z M 56.966999 36.813 C 46.474998 23.607002 33.658001 16.351997 28.132 20.742996 C 23.84 24.153 25.601999 34.118999 31.518002 44.588001 C 31.824001 44.483002 32.126999 44.380001 32.426998 44.278 C 26.455999 34.077999 24.822001 24.598999 28.869999 21.382004 C 33.957001 17.339996 46.240002 24.623001 56.428001 37.445999 C 58.536999 40.099998 60.390999 42.764 61.960999 45.361 C 67.973 55.311001 69.818001 64.308998 65.664001 67.982002 C 64.392998 69.106003 60.509003 69.546997 55.421001 67.257004 C 55.349998 67.346001 55.464001 67.586998 55.553001 67.646004 C 59.945 69.412003 64.152 70.084999 66.276001 68.398003 C 71.379997 64.341995 67.459 50.019001 56.966999 36.813 Z"/>
        <path id="path44" fill="#ffffff" stroke="none" d="M 11.969 38.380001 L 18.688999 38.380001 L 24.329 47.950001 C 24.329 47.950001 24.329 41.02 24.329 40.48 C 24.329 39.639999 23.264 38.544998 22.889 38.380001 L 27.539 38.380001 C 27.254 38.455002 26.339001 39.564999 26.339001 40.48 L 26.339001 51.459999 C 26.339001 52.134998 27.313999 53.064999 27.778999 53.424999 L 21.299 53.424999 L 15.569 43.810001 L 15.569 51.369999 C 15.569 52.119999 16.304001 52.84 17.069 53.455002 L 12.118999 53.455002 C 12.823999 53.154999 13.499001 52.209999 13.559 51.459999 C 13.618999 50.709999 13.559 41.035 13.559 40.615002 C 13.559 39.700001 12.674 38.950001 11.969 38.380001 Z"/>
        <path id="path45" fill="#ffffff" stroke="none" d="M 73.439003 53.424999 L 82.378998 53.424999 C 81.884003 53.305 81.329002 52.720001 81.028999 51.939999 C 80.728996 51.16 75.988998 38.380001 75.988998 38.380001 L 72.589996 38.380001 C 71.625999 39.074001 70.593002 39.806 69.489998 40.577 C 69.487 40.605 69.484001 40.632999 69.478996 40.66 C 69.331001 41.560001 66.670998 51.194 66.509003 51.669998 C 66.283997 52.330002 65.128998 53.064999 64.664001 53.455002 L 69.478996 53.455002 C 68.999001 52.915001 68.609001 52.389999 68.698997 51.790001 C 68.789001 51.189999 69.058998 49.990002 69.058998 49.990002 L 74.039001 49.990002 C 74.264 50.59 74.431999 51.129002 74.518997 51.639999 C 74.624001 52.255001 73.994003 52.945 73.439003 53.424999 Z M 69.509003 48.07 L 71.189003 42.580002 L 73.408997 48.07 Z M 68.751999 38.928001 C 68.999001 38.745998 69.247002 38.563 69.494003 38.380001 L 68.189003 38.380001 C 68.319 38.5 68.533997 38.688999 68.751999 38.928001 Z"/>
        <path id="path46" fill="#ffffff" stroke="none" d="M 34.558998 51.790001 C 34.648998 51.189999 34.918999 49.990002 34.918999 49.990002 L 39.898998 49.990002 C 40.124001 50.59 40.292 51.129002 40.379002 51.639999 C 40.484001 52.255001 39.854 52.945 39.299 53.424999 L 47.169998 53.424999 C 47.334 53.314999 47.497002 53.205002 47.66 53.096001 C 47.355 52.826 47.074001 52.421001 46.889 51.939999 C 46.589001 51.16 41.848999 38.380001 41.848999 38.380001 L 34.049 38.380001 C 34.424 38.724998 35.504002 39.654999 35.339001 40.66 C 35.192001 41.560001 32.530998 51.194 32.368999 51.669998 C 32.144001 52.330002 30.988998 53.064999 30.523998 53.455002 L 35.339001 53.455002 C 34.859001 52.915001 34.469002 52.389999 34.558998 51.790001 Z M 37.049 42.580002 L 39.269001 48.07 L 35.368999 48.07 Z"/>
        <path id="path47" fill="#ffffff" stroke="none" d="M 61.748001 45.848 C 60.279999 46.826 58.730999 47.847 57.098999 48.912998 C 57.831001 49.268002 58.414001 49.714001 58.470001 50.290001 C 58.574001 51.372002 56.400002 51.895 54.435001 51.669998 C 54.042 51.625 53.655998 51.521999 53.287998 51.383999 C 52.880001 51.646999 52.467999 51.911999 52.049999 52.18 C 51.625 52.452999 51.109001 52.789001 50.52 53.176998 L 50.52 54.73 C 50.91 53.965 51.763 53.279999 52.424999 53.244999 C 52.709999 53.23 53.700001 54.145 57.779999 53.919998 C 59.759998 53.811001 63.584999 51.700001 63.525002 49.27 C 63.488998 47.834 62.738998 46.714001 61.748001 45.848 Z M 50.519001 49.599998 L 50.519001 51.181999 C 50.880001 50.941002 51.236 50.703999 51.584999 50.473 C 51.035999 50.091 50.646999 49.734001 50.519001 49.599998 Z M 60.352997 44.855 C 59.973 44.630001 59.588001 44.432999 59.219002 44.258999 C 57.299 43.359001 55.289001 43.194 54.868999 41.979 C 54.573002 41.122002 55.409 40.328999 57.449001 40.359001 C 59.488998 40.389 61.378998 41.604 61.889 42.039001 L 61.889 38.168999 C 61.738998 38.319 61.081001 39.074001 60.478996 38.949001 C 59.324001 38.709 57.359001 38.396 55.109001 38.409 C 52.528999 38.424 50.308998 40.417999 50.234001 42.938999 C 50.129002 46.464001 52.949001 47.424 54.539001 47.979 C 54.702999 48.035999 54.889999 48.097 55.092999 48.161999 C 56.618 47.169998 57.824001 46.405998 58.529999 45.999001 C 59.004002 45.726002 59.625 45.334 60.352997 44.855 Z"/>
    </g>
</svg>
